<?xml version="1.0" encoding="UTF-8" standalone="no"?>
<!-- Created with Inkscape (http://www.inkscape.org/) -->

<svg
   width="100"
   height="100"
   viewBox="0 0 26.458334 26.458334"
   version="1.1"
   id="svg5"
   inkscape:version="1.2.2 (1:1.2.2+202305151914+b0a8486541)"
   sodipodi:docname="cow.svg"
   xml:space="preserve"
   xmlns:inkscape="http://www.inkscape.org/namespaces/inkscape"
   xmlns:sodipodi="http://sodipodi.sourceforge.net/DTD/sodipodi-0.dtd"
   xmlns="http://www.w3.org/2000/svg"
   xmlns:svg="http://www.w3.org/2000/svg"><sodipodi:namedview
     id="namedview7"
     pagecolor="#ffffff"
     bordercolor="#000000"
     borderopacity="0.25"
     inkscape:showpageshadow="2"
     inkscape:pageopacity="0.0"
     inkscape:pagecheckerboard="0"
     inkscape:deskcolor="#d1d1d1"
     inkscape:document-units="mm"
     showgrid="false"
     inkscape:zoom="8.2312202"
     inkscape:cx="40.394983"
     inkscape:cy="54.609158"
     inkscape:window-width="1850"
     inkscape:window-height="1136"
     inkscape:window-x="70"
     inkscape:window-y="27"
     inkscape:window-maximized="1"
     inkscape:current-layer="layer3" /><defs
     id="defs2" /><g
     inkscape:label="Layer 1"
     inkscape:groupmode="layer"
     id="layer1"
     style="display:none"
     sodipodi:insensitive="true"><g
       id="g24825"
       transform="rotate(-164.02525,110.80332,100.50756)"><path
         id="path20004-6-2"
         style="fill:#9cfbca;fill-opacity:1;stroke:#255f38;stroke-width:1.06044;stroke-dasharray:none;stroke-opacity:1"
         d="m 110.80306,10.799858 a 89.46978,89.46978 0 0 0 -89.469478,89.469472 89.46978,89.46978 0 0 0 11.285099,43.36583 10.918862,10.918862 0 0 1 8.981364,-4.71341 10.918862,10.918862 0 0 1 9.182902,5.01313 21.501158,21.501158 0 0 1 7.530289,-1.42782 21.501158,21.501158 0 0 1 21.50153,21.50153 21.501158,21.501158 0 0 1 -1.439188,7.56698 10.918862,10.918862 0 0 1 6.806819,10.11463 10.918862,10.918862 0 0 1 -0.782381,4.0535 89.46978,89.46978 0 0 0 26.403044,3.99562 89.46978,89.46978 0 0 0 89.46999,-89.46999 89.46978,89.46978 0 0 0 -89.46999,-89.469472 z" /><path
         id="path20004-6"
         style="fill:#008112;fill-opacity:1;stroke:#255f38;stroke-width:1.06044;stroke-dasharray:none;stroke-opacity:1"
         d="m 123.3163,12.263263 c -1.46109,1.269608 -12.61683,11.07802 -16.06569,18.022156 -3.82449,7.700471 -8.156196,17.374898 -4.88601,25.326619 2.82531,6.869947 11.86536,9.036755 18.39372,12.580628 4.01098,2.177335 8.08122,5.511163 12.6385,5.266345 5.77519,-0.310244 12.89628,-3.424915 15.20889,-8.350911 2.31261,-4.925996 -6.9264,-10.339999 -2.90215,-15.022856 4.02426,-4.682857 16.09161,1.791184 21.72891,0.866097 5.6373,-0.925087 8.40489,-2.791532 11.7042,-4.474145 0.93811,-0.478432 1.30205,-0.924739 1.55339,-1.371493 A 89.46978,89.46978 0 0 0 123.3163,12.263263 Z m 34.34519,67.852189 c -1.34256,-0.02371 -2.5149,0.286222 -3.3383,1.062985 -2.63486,2.48564 0.66334,5.155236 1.18494,8.644436 0.5216,3.48919 -0.19576,8.83541 1.98903,12.282447 2.18479,3.44705 7.67269,3.47067 9.93066,6.81561 2.25797,3.34493 3.56005,8.51159 2.6355,11.88144 -0.92455,3.36985 -4.55609,3.13677 -6.02082,6.41305 -1.46474,3.27627 -2.06447,9.26103 -1.10691,12.68811 0.95756,3.42708 2.92111,4.86301 5.08806,6.95048 2.16695,2.08747 5.04921,3.90701 7.81968,5.28753 2.37318,1.18256 2.11317,1.21408 6.36912,2.35283 a 89.46978,89.46978 0 0 0 17.92293,-52.81124 c -3.56042,-0.64134 -6.77694,-1.29841 -9.25628,-1.45005 -9.00876,-0.550957 -11.272,-0.324587 -15.56442,-3.339837 -4.29243,-3.01526 -4.30998,-10.49726 -8.22844,-13.200748 -2.69395,-1.858648 -6.47113,-3.524878 -9.42475,-3.577043 z" /><path
         id="path20004"
         style="fill:#008112;fill-opacity:1;stroke:#255f38;stroke-width:1.06044;stroke-dasharray:none;stroke-opacity:1"
         d="m 59.49766,39.632206 c -3.095585,-0.03121 -4.633835,1.866092 -11.947591,2.194182 -1.005562,0.04511 -2.3117,0.05908 -3.781164,0.05426 a 89.46978,89.46978 0 0 0 -22.171257,58.864622 89.46978,89.46978 0 0 0 11.022066,42.88886 10.918862,10.918862 0 0 1 8.980331,-4.71238 10.918862,10.918862 0 0 1 9.177217,5.00435 21.501158,21.501158 0 0 1 7.535974,-1.41904 21.501158,21.501158 0 0 1 21.50153,21.50153 21.501158,21.501158 0 0 1 -1.415934,7.5768 10.918862,10.918862 0 0 1 6.783565,10.10481 10.918862,10.918862 0 0 1 -0.908471,4.34237 89.46978,89.46978 0 0 0 26.793714,4.18269 89.46978,89.46978 0 0 0 18.01595,-1.88515 c 3.78635,-1.57404 6.16078,-3.08524 6.63577,-4.32842 3.24317,-8.48821 -11.33742,-10.38786 -3.67677,-15.7794 7.66061,-5.39154 -7.12064,-19.75835 -18.43815,-12.98784 -11.31754,6.77054 -8.47539,-14.49196 18.27692,-22.57381 26.75229,-8.08188 -15.3511,-11.57638 -23.97063,-12.81938 -8.619547,-1.24297 -15.166889,4.15364 -24.545793,5.09478 -9.3789,0.94114 -24.772225,4.98805 -31.486967,-0.14572 -6.714738,-5.13379 -7.088448,-12.79498 -5.127335,-18.53169 1.961113,-5.73672 6.614398,-8.886986 13.733528,-10.26914 7.119132,-1.382167 19.785795,8.80085 25.48785,6.74067 5.702059,-2.06015 5.871651,-4.396156 5.808431,-8.156604 -0.06322,-3.760441 -3.223019,-6.656854 -7.62124,-9.974585 C 79.760984,81.281236 67.965149,81.801975 65.075098,77.104854 62.185047,72.407737 64.544433,69.226085 66.249703,64.572286 67.954973,59.918487 76.985808,56.216587 76.06099,50.504928 75.136173,44.793265 67.154739,41.368045 61.979679,40.004793 61.009356,39.749186 60.212028,39.639408 59.49766,39.632206 Z" /></g></g><g
     inkscape:groupmode="layer"
     id="layer2"
     inkscape:label="Layer 2" /><g
     inkscape:groupmode="layer"
     id="layer3"
     inkscape:label="Layer 3"><path
       style="fill:none;fill-opacity:1;stroke:#255f38;stroke-width:1;stroke-dasharray:none;stroke-opacity:1"
       d="M 8.0690155,9.0506938 C 11.833031,4.6585955 15.604866,5.4075595 18.437468,8.9757648 c 0.565306,1.1303192 0.192231,2.2768272 -0.348976,3.5459392 -0.792797,1.220284 -1.034183,2.700597 -0.449027,4.170854 0.234114,1.172457 0.675165,2.509559 0.139113,3.614362 -2.697772,2.207494 -5.499354,3.113675 -8.6176456,0.0497 C 8.540625,19.160272 8.4136557,17.917491 9.0580873,16.767575 9.8375131,15.354645 9.2515242,14.004736 8.3929695,12.626557 7.5276962,11.088644 7.6703557,9.8603512 8.0690155,9.0506938 Z"
       id="path32144"
       sodipodi:nodetypes="ccccccccc" /><path
       style="fill:none;fill-opacity:1;stroke:#255f38;stroke-width:1;stroke-dasharray:none;stroke-opacity:1"
       d="m 7.70116,9.6387686 c 0,0 -1.5950232,-1.625453 -2.6841746,-1.5895693 -1.0891514,0.035884 -2.8207212,1.9319708 -2.8207212,1.9319708 0,0 0.9033982,0.3343969 1.1884249,0.6938029 1.2488782,1.57478 3.0603296,1.884495 4.1822923,0.06014 C 7.7598515,10.421499 7.70116,9.6387686 7.70116,9.6387686 Z"
       id="path32509"
       sodipodi:nodetypes="czcssc" /><path
       style="fill:none;fill-opacity:1;stroke:#255f38;stroke-width:1;stroke-dasharray:none;stroke-opacity:1"
       d="m 19.224262,9.8566585 c 0,0 1.595024,-1.625453 2.684175,-1.5895693 1.089151,0.035884 2.820721,1.9319708 2.820721,1.9319708 0,0 -0.903398,0.334397 -1.188425,0.693803 -1.248878,1.57478 -3.060329,1.884495 -4.182292,0.06014 -0.19287,-0.313614 -0.134179,-1.0963445 -0.134179,-1.0963445 z"
       id="path32509-0"
       sodipodi:nodetypes="czcssc" /><path
       style="fill:none;fill-opacity:1;stroke:#255f38;stroke-width:1;stroke-dasharray:none;stroke-opacity:1"
       d="m 6.1741827,3.4211915 c 0,0 -1.5930121,0.9405755 -0.7125429,2.8894047 C 6.342109,8.2594255 13.043969,6.0266749 13.043969,6.0266749"
       id="path32627"
       sodipodi:nodetypes="czc" /><path
       style="fill:none;fill-opacity:1;stroke:#255f38;stroke-width:1;stroke-dasharray:none;stroke-opacity:1"
       d="m 20.358785,3.4675789 c 0,0 1.593012,0.9405755 0.712543,2.8894047 -0.880469,1.9488293 -7.582329,-0.2839213 -7.582329,-0.2839213"
       id="path32627-2"
       sodipodi:nodetypes="czc" /><rect
       style="fill:#255f38;fill-opacity:1;stroke:#255f38;stroke-width:1;stroke-dasharray:none;stroke-opacity:1"
       id="rect32712"
       width="2.8928533"
       height="2.4748805"
       x="-8.4215984"
       y="3.4415753" /><path
       style="fill:#255f38;fill-opacity:1;stroke:none;stroke-width:0.107;stroke-dasharray:none;stroke-opacity:1"
       id="path32720"
       sodipodi:type="arc"
       sodipodi:cx="11.520144"
       sodipodi:cy="10.528335"
       sodipodi:rx="0.85579646"
       sodipodi:ry="0.85579646"
       sodipodi:start="0"
       sodipodi:end="6.2820297"
       sodipodi:arc-type="arc"
       d="m 12.375941,10.528335 a 0.85579646,0.85579646 0 0 1 -0.855549,0.855796 0.85579646,0.85579646 0 0 1 -0.856044,-0.855302 0.85579646,0.85579646 0 0 1 0.855055,-0.8562905 0.85579646,0.85579646 0 0 1 0.856537,0.8548075"
       sodipodi:open="true" /><path
       style="fill:#255f38;fill-opacity:1;stroke:none;stroke-width:0.107;stroke-dasharray:none;stroke-opacity:1"
       id="path32720-3"
       sodipodi:type="arc"
       sodipodi:cx="14.746536"
       sodipodi:cy="10.528335"
       sodipodi:rx="0.85579646"
       sodipodi:ry="0.85579646"
       sodipodi:start="0"
       sodipodi:end="6.2820297"
       sodipodi:arc-type="arc"
       d="m 15.602333,10.528335 a 0.85579646,0.85579646 0 0 1 -0.85555,0.855796 0.85579646,0.85579646 0 0 1 -0.856043,-0.855302 0.85579646,0.85579646 0 0 1 0.855055,-0.8562905 0.85579646,0.85579646 0 0 1 0.856537,0.8548075"
       sodipodi:open="true" /><path
       style="fill:#255f38;fill-opacity:1;stroke:none;stroke-width:0.108079;stroke-dasharray:none;stroke-opacity:1"
       id="path32720-3-7-5"
       sodipodi:type="arc"
       sodipodi:cx="15.360539"
       sodipodi:cy="19.028063"
       sodipodi:rx="0.5726757"
       sodipodi:ry="1.304817"
       sodipodi:start="0"
       sodipodi:end="6.2820297"
       sodipodi:arc-type="arc"
       d="m 15.933215,19.028063 a 0.5726757,1.304817 0 0 1 -0.57251,1.304817 0.5726757,1.304817 0 0 1 -0.572841,-1.304063 0.5726757,1.304817 0 0 1 0.572179,-1.305571 0.5726757,1.304817 0 0 1 0.573172,1.303309"
       sodipodi:open="true" /><path
       style="fill:#255f38;fill-opacity:1;stroke:none;stroke-width:0.108079;stroke-dasharray:none;stroke-opacity:1"
       id="path32720-3-7-5-9"
       sodipodi:type="arc"
       sodipodi:cx="11.12721"
       sodipodi:cy="19.028063"
       sodipodi:rx="0.5726757"
       sodipodi:ry="1.304817"
       sodipodi:start="0"
       sodipodi:end="6.2820297"
       sodipodi:arc-type="arc"
       d="m 11.699885,19.028063 a 0.5726757,1.304817 0 0 1 -0.57251,1.304817 0.5726757,1.304817 0 0 1 -0.572841,-1.304063 0.5726757,1.304817 0 0 1 0.572179,-1.305571 0.5726757,1.304817 0 0 1 0.573172,1.303309"
       sodipodi:open="true" /><path
       style="fill:none;fill-opacity:1;stroke:#255f38;stroke-width:1;stroke-dasharray:none;stroke-opacity:1"
       d="m 8.7530854,17.455726 c 2.3025756,-1.690478 5.2705336,-2.99582 8.6626516,-0.209269 l 0.605036,0.435777"
       id="path32909"
       sodipodi:nodetypes="ccc" /></g></svg>
