<?xml version="1.0" encoding="UTF-8" standalone="no"?>
<!-- Created with Inkscape (http://www.inkscape.org/) -->

<svg
   width="800"
   height="800"
   viewBox="0 0 211.66667 211.66667"
   version="1.1"
   id="svg5"
   inkscape:version="1.2.2 (1:1.2.2+202305151914+b0a8486541)"
   sodipodi:docname="planet.svg"
   xmlns:inkscape="http://www.inkscape.org/namespaces/inkscape"
   xmlns:sodipodi="http://sodipodi.sourceforge.net/DTD/sodipodi-0.dtd"
   xmlns="http://www.w3.org/2000/svg"
   xmlns:svg="http://www.w3.org/2000/svg">
  <sodipodi:namedview
     id="namedview7"
     pagecolor="#ffffff"
     bordercolor="#000000"
     borderopacity="0.25"
     inkscape:showpageshadow="2"
     inkscape:pageopacity="0.0"
     inkscape:pagecheckerboard="0"
     inkscape:deskcolor="#d1d1d1"
     inkscape:document-units="mm"
     showgrid="false"
     inkscape:zoom="1.0289025"
     inkscape:cx="475.74963"
     inkscape:cy="448.53617"
     inkscape:window-width="1850"
     inkscape:window-height="1136"
     inkscape:window-x="70"
     inkscape:window-y="27"
     inkscape:window-maximized="1"
     inkscape:current-layer="layer1" />
  <defs
     id="defs2" />
  <g
     inkscape:label="Layer 1"
     inkscape:groupmode="layer"
     id="layer1">
    <g
       id="g24825"
       transform="rotate(-164.02525,110.80332,100.50756)">
      <path
         id="path20004-6-2"
         style="fill:#9cfbca;fill-opacity:1;stroke:#255f38;stroke-width:1.06044;stroke-dasharray:none;stroke-opacity:1"
         d="m 110.80306,10.799858 a 89.46978,89.46978 0 0 0 -89.469478,89.469472 89.46978,89.46978 0 0 0 11.285099,43.36583 10.918862,10.918862 0 0 1 8.981364,-4.71341 10.918862,10.918862 0 0 1 9.182902,5.01313 21.501158,21.501158 0 0 1 7.530289,-1.42782 21.501158,21.501158 0 0 1 21.50153,21.50153 21.501158,21.501158 0 0 1 -1.439188,7.56698 10.918862,10.918862 0 0 1 6.806819,10.11463 10.918862,10.918862 0 0 1 -0.782381,4.0535 89.46978,89.46978 0 0 0 26.403044,3.99562 89.46978,89.46978 0 0 0 89.46999,-89.46999 89.46978,89.46978 0 0 0 -89.46999,-89.469472 z" />
      <path
         id="path20004-6"
         style="fill:#008112;fill-opacity:1;stroke:#255f38;stroke-width:1.06044;stroke-dasharray:none;stroke-opacity:1"
         d="m 123.3163,12.263263 c -1.46109,1.269608 -12.61683,11.07802 -16.06569,18.022156 -3.82449,7.700471 -8.156196,17.374898 -4.88601,25.326619 2.82531,6.869947 11.86536,9.036755 18.39372,12.580628 4.01098,2.177335 8.08122,5.511163 12.6385,5.266345 5.77519,-0.310244 12.89628,-3.424915 15.20889,-8.350911 2.31261,-4.925996 -6.9264,-10.339999 -2.90215,-15.022856 4.02426,-4.682857 16.09161,1.791184 21.72891,0.866097 5.6373,-0.925087 8.40489,-2.791532 11.7042,-4.474145 0.93811,-0.478432 1.30205,-0.924739 1.55339,-1.371493 A 89.46978,89.46978 0 0 0 123.3163,12.263263 Z m 34.34519,67.852189 c -1.34256,-0.02371 -2.5149,0.286222 -3.3383,1.062985 -2.63486,2.48564 0.66334,5.155236 1.18494,8.644436 0.5216,3.48919 -0.19576,8.83541 1.98903,12.282447 2.18479,3.44705 7.67269,3.47067 9.93066,6.81561 2.25797,3.34493 3.56005,8.51159 2.6355,11.88144 -0.92455,3.36985 -4.55609,3.13677 -6.02082,6.41305 -1.46474,3.27627 -2.06447,9.26103 -1.10691,12.68811 0.95756,3.42708 2.92111,4.86301 5.08806,6.95048 2.16695,2.08747 5.04921,3.90701 7.81968,5.28753 2.37318,1.18256 2.11317,1.21408 6.36912,2.35283 a 89.46978,89.46978 0 0 0 17.92293,-52.81124 c -3.56042,-0.64134 -6.77694,-1.29841 -9.25628,-1.45005 -9.00876,-0.550957 -11.272,-0.324587 -15.56442,-3.339837 -4.29243,-3.01526 -4.30998,-10.49726 -8.22844,-13.200748 -2.69395,-1.858648 -6.47113,-3.524878 -9.42475,-3.577043 z" />
      <path
         id="path20004"
         style="fill:#008112;fill-opacity:1;stroke:#255f38;stroke-width:1.06044;stroke-dasharray:none;stroke-opacity:1"
         d="m 59.49766,39.632206 c -3.095585,-0.03121 -4.633835,1.866092 -11.947591,2.194182 -1.005562,0.04511 -2.3117,0.05908 -3.781164,0.05426 a 89.46978,89.46978 0 0 0 -22.171257,58.864622 89.46978,89.46978 0 0 0 11.022066,42.88886 10.918862,10.918862 0 0 1 8.980331,-4.71238 10.918862,10.918862 0 0 1 9.177217,5.00435 21.501158,21.501158 0 0 1 7.535974,-1.41904 21.501158,21.501158 0 0 1 21.50153,21.50153 21.501158,21.501158 0 0 1 -1.415934,7.5768 10.918862,10.918862 0 0 1 6.783565,10.10481 10.918862,10.918862 0 0 1 -0.908471,4.34237 89.46978,89.46978 0 0 0 26.793714,4.18269 89.46978,89.46978 0 0 0 18.01595,-1.88515 c 3.78635,-1.57404 6.16078,-3.08524 6.63577,-4.32842 3.24317,-8.48821 -11.33742,-10.38786 -3.67677,-15.7794 7.66061,-5.39154 -7.12064,-19.75835 -18.43815,-12.98784 -11.31754,6.77054 -8.47539,-14.49196 18.27692,-22.57381 26.75229,-8.08188 -15.3511,-11.57638 -23.97063,-12.81938 -8.619547,-1.24297 -15.166889,4.15364 -24.545793,5.09478 -9.3789,0.94114 -24.772225,4.98805 -31.486967,-0.14572 -6.714738,-5.13379 -7.088448,-12.79498 -5.127335,-18.53169 1.961113,-5.73672 6.614398,-8.886986 13.733528,-10.26914 7.119132,-1.382167 19.785795,8.80085 25.48785,6.74067 5.702059,-2.06015 5.871651,-4.396156 5.808431,-8.156604 -0.06322,-3.760441 -3.223019,-6.656854 -7.62124,-9.974585 C 79.760984,81.281236 67.965149,81.801975 65.075098,77.104854 62.185047,72.407737 64.544433,69.226085 66.249703,64.572286 67.954973,59.918487 76.985808,56.216587 76.06099,50.504928 75.136173,44.793265 67.154739,41.368045 61.979679,40.004793 61.009356,39.749186 60.212028,39.639408 59.49766,39.632206 Z" />
    </g>
  </g>
</svg>
